<svg width="31" height="30" fill="none" xmlns="http://www.w3.org/2000/svg"><path d="M18.107 8h-5.214a.848.848 0 0 0-.631.293A1.063 1.063 0 0 0 12 9c0 .265.094.52.262.707a.848.848 0 0 0 .631.293h5.214a.848.848 0 0 0 .631-.293C18.906 9.52 19 9.265 19 9c0-.265-.094-.52-.262-.707A.848.848 0 0 0 18.107 8ZM11.107 22H5.893a.848.848 0 0 0-.631.293A1.064 1.064 0 0 0 5 23c0 .265.094.52.262.707a.848.848 0 0 0 .631.293h5.214a.848.848 0 0 0 .631-.293c.168-.187.262-.442.262-.707 0-.265-.094-.52-.262-.707a.848.848 0 0 0-.631-.293Z" fill="#fff"/><path d="M28.3 14.146h-5.255V1.756c0-.231-.044-.46-.13-.672a1.762 1.762 0 0 0-.368-.57 1.698 1.698 0 0 0-.552-.38 1.652 1.652 0 0 0-.65-.134H9.401C8.95 0 8.519.185 8.2.514c-.319.33-.498.776-.498 1.242v12.39H2.7c-.223 0-.444.045-.65.133a1.697 1.697 0 0 0-.551.381 1.76 1.76 0 0 0-.369.57c-.085.213-.129.44-.129.671v12.343c0 .466.179.913.498 1.242.318.329.75.514 1.201.514h11.947c.3 0 .595-.082.854-.239.259.157.554.24.854.239H28.3c.45 0 .883-.185 1.201-.514.319-.33.498-.776.498-1.242V15.902c0-.466-.179-.913-.498-1.242a1.672 1.672 0 0 0-1.201-.514Zm-7.908 1.805h3.87v1.346a.316.316 0 0 1-.088.22.296.296 0 0 1-.213.092h-3.24a.322.322 0 0 1-.232-.1.345.345 0 0 1-.097-.24v-1.317ZM17.31 1.806v1.346c-.001.082-.033.16-.09.218a.298.298 0 0 1-.211.091h-3.24a.323.323 0 0 1-.233-.099.344.344 0 0 1-.096-.24V1.807h3.87Zm-7.86 0h2.243v1.318c0 .568.219 1.114.608 1.515.39.402.917.628 1.467.628h3.24c.544 0 1.065-.223 1.45-.62.384-.397.6-.935.6-1.497V1.806H21.3v12.242H9.45V1.806Zm1.158 14.145v1.346a.316.316 0 0 1-.089.22.296.296 0 0 1-.213.092h-3.24a.323.323 0 0 1-.232-.1.345.345 0 0 1-.096-.24v-1.317h3.87Zm3.99 12.243H2.748V15.952H4.99v1.318c0 .569.22 1.114.608 1.516.39.402.918.628 1.468.628h3.24c.544 0 1.065-.223 1.45-.62.383-.397.6-.935.6-1.497v-1.346h2.242v12.243Zm13.654 0h-11.85V15.952h2.243v1.318c0 .569.218 1.114.608 1.516.389.402.917.628 1.468.628h3.24c.543 0 1.064-.223 1.449-.62.384-.397.6-.935.6-1.497v-1.346h2.242v12.243Z" fill="#fff"/><path d="M25.107 22h-5.214a.848.848 0 0 0-.631.293A1.064 1.064 0 0 0 19 23c0 .265.094.52.262.707a.848.848 0 0 0 .631.293h5.214a.848.848 0 0 0 .631-.293c.168-.187.262-.442.262-.707 0-.265-.094-.52-.262-.707a.848.848 0 0 0-.631-.293Z" fill="#fff"/></svg>