<svg viewBox="0 0 20 21" fill="none" xmlns="http://www.w3.org/2000/svg">
<path d="M9.29 14.21C9.3851 14.301 9.49725 14.3724 9.62 14.42C9.86346 14.52 10.1365 14.52 10.38 14.42C10.5028 14.3724 10.6149 14.301 10.71 14.21L13.71 11.21C13.8983 11.0217 14.0041 10.7663 14.0041 10.5C14.0041 10.2337 13.8983 9.97831 13.71 9.79C13.5217 9.6017 13.2663 9.49591 13 9.49591C12.7337 9.49591 12.4783 9.6017 12.29 9.79L11 11.09V7.5C11 7.23479 10.8946 6.98043 10.7071 6.7929C10.5196 6.60536 10.2652 6.5 10 6.5C9.73478 6.5 9.48043 6.60536 9.29289 6.7929C9.10536 6.98043 9 7.23479 9 7.5V11.09L7.71 9.79C7.61704 9.69628 7.50644 9.62188 7.38458 9.57111C7.26272 9.52034 7.13201 9.49421 7 9.49421C6.86799 9.49421 6.73728 9.52034 6.61542 9.57111C6.49356 9.62188 6.38296 9.69628 6.29 9.79C6.19627 9.88297 6.12188 9.99357 6.07111 10.1154C6.02034 10.2373 5.9942 10.368 5.9942 10.5C5.9942 10.632 6.02034 10.7627 6.07111 10.8846C6.12188 11.0064 6.19627 11.117 6.29 11.21L9.29 14.21ZM10 20.5C11.9778 20.5 13.9112 19.9135 15.5557 18.8147C17.2002 17.7159 18.4819 16.1541 19.2388 14.3268C19.9957 12.4996 20.1937 10.4889 19.8079 8.5491C19.422 6.60929 18.4696 4.82746 17.0711 3.42894C15.6725 2.03041 13.8907 1.078 11.9509 0.692152C10.0111 0.306299 8.00043 0.504333 6.17317 1.26121C4.3459 2.01809 2.78412 3.29981 1.6853 4.9443C0.58649 6.58879 0 8.52219 0 10.5C0 13.1522 1.05357 15.6957 2.92893 17.5711C3.85752 18.4997 4.95991 19.2363 6.17317 19.7388C7.38642 20.2413 8.68678 20.5 10 20.5ZM10 2.5C11.5823 2.5 13.129 2.9692 14.4446 3.84825C15.7602 4.7273 16.7855 5.97673 17.391 7.43854C17.9965 8.90035 18.155 10.5089 17.8463 12.0607C17.5376 13.6126 16.7757 15.038 15.6569 16.1569C14.538 17.2757 13.1126 18.0376 11.5607 18.3463C10.0089 18.655 8.40034 18.4965 6.93853 17.891C5.47672 17.2855 4.22729 16.2602 3.34824 14.9446C2.46919 13.629 2 12.0823 2 10.5C2 8.37827 2.84285 6.34344 4.34315 4.84315C5.84344 3.34286 7.87827 2.5 10 2.5Z"/>
</svg>
