<svg width="20" height="14" viewBox="0 0 20 14" fill="none" xmlns="http://www.w3.org/2000/svg">
<path d="M19 2H1C0.734783 2 0.480429 1.89464 0.292892 1.70711C0.105356 1.51957 0 1.26522 0 1C0 0.734784 0.105356 0.48043 0.292892 0.292893C0.480429 0.105357 0.734783 0 1 0H19C19.2652 0 19.5196 0.105357 19.7071 0.292893C19.8946 0.48043 20 0.734784 20 1C20 1.26522 19.8946 1.51957 19.7071 1.70711C19.5196 1.89464 19.2652 2 19 2ZM1 12H19C19.2652 12 19.5196 12.1054 19.7071 12.2929C19.8946 12.4804 20 12.7348 20 13C20 13.2652 19.8946 13.5196 19.7071 13.7071C19.5196 13.8946 19.2652 14 19 14H1C0.734783 14 0.480429 13.8946 0.292892 13.7071C0.105356 13.5196 0 13.2652 0 13C0 12.7348 0.105356 12.4804 0.292892 12.2929C0.480429 12.1054 0.734783 12 1 12ZM1 8H9C9.26522 8 9.51957 8.10536 9.70711 8.29289C9.89464 8.48043 10 8.73478 10 9C10 9.26522 9.89464 9.51957 9.70711 9.70711C9.51957 9.89464 9.26522 10 9 10H1C0.734783 10 0.480429 9.89464 0.292892 9.70711C0.105356 9.51957 0 9.26522 0 9C0 8.73478 0.105356 8.48043 0.292892 8.29289C0.480429 8.10536 0.734783 8 1 8ZM1 4H9C9.26522 4 9.51957 4.10536 9.70711 4.29289C9.89464 4.48043 10 4.73478 10 5C10 5.26522 9.89464 5.51957 9.70711 5.70711C9.51957 5.89464 9.26522 6 9 6H1C0.734783 6 0.480429 5.89464 0.292892 5.70711C0.105356 5.51957 0 5.26522 0 5C0 4.73478 0.105356 4.48043 0.292892 4.29289C0.480429 4.10536 0.734783 4 1 4Z" fill="#C4C4C4"/>
</svg>
