<svg width="20" height="20" viewBox="0 0 20 20" fill="none" xmlns="http://www.w3.org/2000/svg">
<path fill-rule="evenodd" clip-rule="evenodd" d="M6.0189 9.41177C5.46661 9.41177 5.0189 8.96405 5.0189 8.41177V5.70588H1.00098C0.448692 5.70588 0.000976562 5.25817 0.000976562 4.70588C0.000976562 4.1536 0.448692 3.70588 1.00098 3.70588H5.0189V1C5.0189 0.447715 5.46661 0 6.0189 0C6.57118 0 7.0189 0.447715 7.0189 1L7.0189 8.41177C7.0189 8.96405 6.57118 9.41177 6.0189 9.41177ZM9.98995 3.70588C9.43766 3.70588 8.98995 4.1536 8.98995 4.70588C8.98995 5.25817 9.43766 5.70588 9.98995 5.70588H18.5563C19.1086 5.70588 19.5563 5.25817 19.5563 4.70588C19.5563 4.1536 19.1086 3.70588 18.5563 3.70588H9.98995ZM18.5561 16.2941C19.1084 16.2941 19.5561 15.8464 19.5561 15.2941C19.5561 14.7418 19.1084 14.2941 18.5561 14.2941H14.5382V11.5882C14.5382 11.0359 14.0905 10.5882 13.5382 10.5882C12.9859 10.5882 12.5382 11.0359 12.5382 11.5882L12.5382 19C12.5382 19.5523 12.9859 20 13.5382 20C14.0905 20 14.5382 19.5523 14.5382 19V16.2941L18.5561 16.2941ZM9.81348 15.2941C9.81348 15.8464 9.36576 16.2941 8.81348 16.2941L1.00195 16.2941C0.44966 16.2941 0.00194554 15.8464 0.0019455 15.2941C0.00194641 14.7418 0.449661 14.2941 1.00195 14.2941L8.81348 14.2941C9.36576 14.2941 9.81348 14.7418 9.81348 15.2941Z" fill="#C4C4C4"/>
</svg>
