<svg width="30" height="30" fill="none" xmlns="http://www.w3.org/2000/svg"><path d="M29.578 20.635a2.088 2.088 0 0 0 .196-2.199 2.109 2.109 0 0 0-.783-.846 2.139 2.139 0 0 0-1.116-.311h-3.17c.112-.393.232-.866.337-1.363.412-1.961.34-3.296-.218-4.076a3.645 3.645 0 0 0-.324-.392.785.785 0 0 0 .008-.113V4.436a3.425 3.425 0 0 0-1.022-2.43A3.497 3.497 0 0 0 21.028 1H3.475a3.497 3.497 0 0 0-2.456 1.008A3.425 3.425 0 0 0 0 4.44v19.052a3.425 3.425 0 0 0 1.019 2.43 3.497 3.497 0 0 0 2.456 1.009h9.737c.031.396.212.765.506 1.035.293.27.679.421 1.08.423h1.26a1.605 1.605 0 0 0 1.159-.496l3.947 1.078a.89.89 0 0 0 .229.03h6.473c.394 0 .78-.108 1.116-.312.335-.204.606-.497.783-.846a2.08 2.08 0 0 0-.196-2.199 2.078 2.078 0 0 0 0-2.505 2.078 2.078 0 0 0 0-2.507l.01.004ZM16.001 2.763v3.232c0 .377-.151.739-.42 1.006-.27.266-.635.416-1.016.417H9.978c-.392 0-.767-.155-1.044-.43A1.456 1.456 0 0 1 8.5 5.956V2.763h7.5ZM1.717 23.49V4.436c.001-.46.187-.902.516-1.227.33-.326.776-.509 1.242-.51h3.302v3.256c0 .838.337 1.643.936 2.236a3.213 3.213 0 0 0 2.259.927h4.587a3.183 3.183 0 0 0 2.234-.913 3.121 3.121 0 0 0 .926-2.21V2.7h3.302a1.773 1.773 0 0 1 1.246.506 1.739 1.739 0 0 1 .518 1.23v6.087a2.823 2.823 0 0 0-1.295.074.859.859 0 0 0-.578.639c-.29 1.408-1.49 5.13-3.6 5.836a1.591 1.591 0 0 0-1.249-.596h-1.26c-.424 0-.83.167-1.129.463-.3.296-.468.698-.468 1.118v7.177H3.475a1.775 1.775 0 0 1-1.244-.511 1.74 1.74 0 0 1-.514-1.232Zm14.227 3.197h-1.02v-8.512h1.02v8.512Zm11.931.612h-6.36l-3.853-1.046v-7.51c2.987-.831 4.36-4.96 4.785-6.552a1.424 1.424 0 0 1 .97.633c.397.545.068 2.626-.501 4.454h-1.518a.863.863 0 0 0-.607.248.846.846 0 0 0 0 1.203c.16.159.38.248.607.248h6.473a.41.41 0 0 1 .274.126.402.402 0 0 1-.274.681.863.863 0 0 0-.607.25.845.845 0 0 0 0 1.201c.161.16.38.25.607.25a.41.41 0 0 1 .274.125.402.402 0 0 1-.274.68.863.863 0 0 0-.607.25.845.845 0 0 0 0 1.202c.161.16.38.249.607.249a.41.41 0 0 1 .288.118.4.4 0 0 1-.288.687.863.863 0 0 0-.607.25.845.845 0 0 0 0 1.201c.161.16.38.25.607.25a.41.41 0 0 1 .274.125.402.402 0 0 1-.274.681l.004-.004Z" fill="#fff"/><path d="M16.168 14c.22 0 .432-.105.588-.293A1.11 1.11 0 0 0 17 13c0-.265-.088-.52-.244-.707a.768.768 0 0 0-.588-.293H8.832a.768.768 0 0 0-.588.293A1.11 1.11 0 0 0 8 13c0 .265.088.52.244.707a.768.768 0 0 0 .588.293h7.336Z" fill="#fff"/></svg>