<svg width="20" height="20" viewBox="0 0 20 20" fill="none" xmlns="http://www.w3.org/2000/svg">
<path fill-rule="evenodd" clip-rule="evenodd" d="M0 3C0 1.34315 1.41384 0 3.15789 0H16.8421C18.5862 0 20 1.34315 20 3V17C20 18.6569 18.5862 20 16.8421 20H3.15789C1.41384 20 0 18.6569 0 17V3ZM3.15789 2C2.57654 2 2.10526 2.44772 2.10526 3V17C2.10526 17.5523 2.57654 18 3.15789 18H16.8421C17.4235 18 17.8947 17.5523 17.8947 17V3C17.8947 2.44772 17.4235 2 16.8421 2H3.15789Z" fill="#C4C4C4"/>
<path fill-rule="evenodd" clip-rule="evenodd" d="M6.31543 8C6.31543 7.44772 6.78671 7 7.36806 7H12.6312C13.2126 7 13.6839 7.44772 13.6839 8C13.6839 8.55228 13.2126 9 12.6312 9H7.36806C6.78671 9 6.31543 8.55228 6.31543 8Z" fill="#C4C4C4"/>
<path fill-rule="evenodd" clip-rule="evenodd" d="M6.31543 12C6.31543 11.4477 6.78671 11 7.36806 11H12.6312C13.2126 11 13.6839 11.4477 13.6839 12C13.6839 12.5523 13.2126 13 12.6312 13H7.36806C6.78671 13 6.31543 12.5523 6.31543 12Z" fill="#C4C4C4"/>
</svg>
