<svg width="20" height="20" viewBox="0 0 20 20" fill="none" xmlns="http://www.w3.org/2000/svg">
<g clip-path="url(#clip0_1742_2599)">
<path fill-rule="evenodd" clip-rule="evenodd" d="M0.0354871 2.73687C0.180803 2.20405 0.730544 1.88991 1.26337 2.03523L5.27221 3.12855C5.57477 3.21106 5.8211 3.43074 5.93757 3.72192L6.41501 4.91551H18.1289C18.4476 4.91551 18.7472 5.06737 18.9355 5.32438C19.1239 5.58139 19.1785 5.91279 19.0825 6.21664L16.8959 13.141C16.7645 13.557 16.3786 13.8399 15.9423 13.8399H7.19573C6.72285 13.8399 6.3146 13.5086 6.21718 13.0459L4.77729 6.20638L4.26556 4.92705L0.737133 3.96476C0.204309 3.81944 -0.109829 3.2697 0.0354871 2.73687ZM6.97042 6.91551L8.00713 11.8399H15.2094L16.7645 6.91551H6.97042ZM10.4755 16.4845C10.4755 17.2896 9.82282 17.9423 9.01772 17.9423C8.21263 17.9423 7.55996 17.2896 7.55996 16.4845C7.55996 15.6794 8.21263 15.0267 9.01772 15.0267C9.82282 15.0267 10.4755 15.6794 10.4755 16.4845ZM14.1211 17.9423C14.9262 17.9423 15.5789 17.2896 15.5789 16.4845C15.5789 15.6794 14.9262 15.0267 14.1211 15.0267C13.316 15.0267 12.6634 15.6794 12.6634 16.4845C12.6634 17.2896 13.316 17.9423 14.1211 17.9423Z" fill="#C4C4C4"/>
</g>
<defs>
<clipPath id="clip0_1742_2599">
<rect width="20" height="20" fill="white"/>
</clipPath>
</defs>
</svg>
